<svg xmlns="http://www.w3.org/2000/svg" viewBox="0 0 32 32" fill="none"><rect width="32" height="32" rx="6" fill="#1b1f23"/><path d="M16 4C9.373 4 4 9.373 4 16c0 5.303 3.438 9.8 8.205 11.387.6.111.82-.26.82-.577v-2.234c-3.338.726-4.033-1.416-4.033-1.416-.546-1.387-1.333-1.756-1.333-1.756-1.09-.745.083-.73.083-.73 1.205.085 1.84 1.238 1.84 1.238 1.07 1.834 2.809 1.304 3.495.997.108-.775.418-1.305.762-1.604-2.665-.305-5.467-1.334-5.467-5.932 0-1.31.469-2.381 1.236-3.221-.124-.303-.535-1.524.117-3.176 0 0 1.008-.322 3.301 1.23a11.5 11.5 0 013.004-.404c1.02.005 2.047.138 3.006.404 2.29-1.552 3.297-1.23 3.297-1.23.653 1.652.242 2.873.118 3.176.77.84 1.235 1.911 1.235 3.221 0 4.61-2.807 5.624-5.479 5.921.43.372.823 1.102.823 2.222v3.293c0 .319.218.694.825.576C24.565 25.797 28 21.3 28 16c0-6.627-5.373-12-12-12z" fill="#fff"/></svg>