<svg xmlns="http://www.w3.org/2000/svg" viewBox="0 0 32 32" fill="none">
  <path fill-rule="evenodd" clip-rule="evenodd" d="M16 2C8.265 2 2 8.265 2 16c0 6.195 4.008 11.427 9.572 13.282.7.128.96-.303.96-.672 0-.333-.013-1.434-.018-2.604-3.893.846-4.715-1.654-4.715-1.654-.637-1.617-1.555-2.048-1.555-2.048-1.272-.868.096-.852.096-.852 1.406.099 2.146 1.444 2.146 1.444 1.249 2.141 3.276 1.522 4.074 1.164.126-.905.489-1.523.89-1.873-3.108-.353-6.375-1.554-6.375-6.916 0-1.527.546-2.776 1.442-3.756-.145-.353-.625-1.776.136-3.706 0 0 1.176-.376 3.852 1.435A13.39 13.39 0 0116 7.56c1.192.006 2.393.161 3.515.473 2.673-1.811 3.847-1.435 3.847-1.435.763 1.93.283 3.353.138 3.706.9.98 1.44 2.229 1.44 3.756 0 5.377-3.272 6.558-6.388 6.903.502.433.95 1.286.95 2.594 0 1.873-.017 3.383-.017 3.843 0 .372.256.807.967.669C25.997 27.422 30 22.191 30 16 30 8.265 23.735 2 16 2z" fill="#24292f"/>
</svg>
