<svg xmlns="http://www.w3.org/2000/svg" viewBox="0 0 24 24" fill="#61DAFB">
  <path d="M12 10.11c1.03 0 1.87.84 1.87 1.89 0 1-.84 1.89-1.87 1.89S10.13 13 10.13 12c0-1.05.84-1.89 1.87-1.89M7.37 20c.63.38 2.01-.2 3.6-1.7-.52-.59-1.03-1.23-1.51-1.9a22.7 22.7 0 0 1-2.4-.36c-.51 2.14-.32 3.61.31 3.96m.71-5.74l-.29-.51c-.11.29-.22.58-.29.86.27.06.57.11.88.16l-.3-.51m6.54-.76l.81-1.5-.81-1.5c-.3-.53-.62-1-.91-1.47C13.17 9 12.6 9 12 9c-.6 0-1.17 0-1.71.03-.29.47-.61.94-.91 1.47L8.57 12l.81 1.5c.3.53.62 1 .91 1.47.54.03 1.11.03 1.71.03.6 0 1.17 0 1.71-.03.29-.47.61-.94.91-1.47M12 6.78c-.19.22-.39.45-.59.72h1.18c-.2-.27-.4-.5-.59-.72m0 10.44c.19-.22.39-.45.59-.72h-1.18c.2.27.4.5.59.72M16.62 4c-.62-.38-2 .2-3.59 1.7.52.59 1.03 1.23 1.51 1.9.82.08 1.63.2 2.4.36.51-2.14.32-3.61-.32-3.96m-.7 5.74l.29.51c.11-.29.22-.58.29-.86-.27-.06-.57-.11-.88-.16l.3.51m1.45-7.05c1.47.84 1.63 3.05 1.01 5.63 2.54.75 4.37 1.99 4.37 3.68s-1.83 2.93-4.37 3.68c.62 2.58.46 4.79-1.01 5.63-1.46.84-3.45-.12-5.37-1.95-1.92 1.83-3.91 2.79-5.38 1.95-1.46-.84-1.62-3.05-1-5.63-2.54-.75-4.37-1.99-4.37-3.68s1.83-2.93 4.37-3.68c-.62-2.58-.46-4.79 1-5.63 1.47-.84 3.46.12 5.38 1.95 1.92-1.83 3.91-2.79 5.37-1.95M17.08 12c.34.75.64 1.5.89 2.26 2.1-.63 3.28-1.53 3.28-2.26s-1.18-1.63-3.28-2.26c-.25.76-.55 1.51-.89 2.26M6.92 12c-.34-.75-.64-1.5-.89-2.26-2.1.63-3.28 1.53-3.28 2.26s1.18 1.63 3.28 2.26c.25-.76.55-1.51.89-2.26m9.15 4.36c.61 1.89.63 3.41.11 3.9s-1.6.23-3.23-.87c.58-.65 1.15-1.38 1.69-2.16.38-.05.75-.12 1.11-.21l.32-.66m-10.14 0l.32.66c.36.09.73.16 1.11.21.54.78 1.11 1.51 1.69 2.16-1.63 1.1-2.71 1.36-3.23.87-.52-.49-.5-2.01.11-3.9z"/>
</svg>
