<svg xmlns="http://www.w3.org/2000/svg" viewBox="0 0 24 24" fill="#EE802F">
  <path d="M6.18 15.64a2.18 2.18 0 0 1 2.18 2.18c0 1.2-.98 2.18-2.18 2.18a2.18 2.18 0 0 1 0-4.36m0-2.18A4.36 4.36 0 0 0 1.82 18a4.36 4.36 0 0 0 4.36 4.36A4.36 4.36 0 0 0 10.54 18a4.36 4.36 0 0 0-4.36-4.36M4 4.44A15.56 15.56 0 0 1 8.18 4c2.36 0 4.36.95 5.82 2.77C12.77 8.59 10.81 10 8.18 10a15.56 15.56 0 0 1-4.18-.44V4.44M2.18 2v10a17.74 17.74 0 0 0 6 1c3.64 0 6.55-1.64 8.36-4 1.82-2.36 1.82-4.18 1.82-4.18V2H2.18M19.8 2v3H22v2h-2.2v9c0 1.23.55 1.82 1.64 1.82V20c-2.09 0-3.64-1.5-3.64-3.82V7h-1.82V5H17.8V2h2z"/>
</svg>
